<?xml version="1.0" standalone="no"?>
<!DOCTYPE svg PUBLIC "-//W3C//DTD SVG 20010904//EN"
 "http://www.w3.org/TR/2001/REC-SVG-20010904/DTD/svg10.dtd">
<svg version="1.0" xmlns="http://www.w3.org/2000/svg"
 width="490.000000pt" height="490.000000pt" viewBox="0 0 490.000000 490.000000"
 preserveAspectRatio="xMidYMid meet">
<metadata>
Created by potrace 1.11, written by Peter Selinger 2001-2013
</metadata>
<g transform="translate(0.000000,490.000000) scale(0.100000,-0.100000)"
fill="#000000" stroke="none">
<path d="M2800 3911 c-51 -16 -90 -42 -113 -73 -55 -76 -54 -42 -52 -968 1
-470 5 -880 9 -910 33 -245 144 -469 321 -646 126 -127 258 -212 416 -269 543
-196 1143 44 1399 560 45 91 88 216 105 305 15 79 14 305 -1 390 -79 447 -411
803 -845 908 -159 39 -295 44 -363 13 -168 -76 -177 -319 -14 -402 36 -19 61
-23 173 -33 173 -15 347 -108 461 -247 177 -216 201 -535 57 -777 -94 -158
-260 -278 -441 -318 -102 -23 -263 -15 -352 16 -207 73 -371 231 -434 420 -40
121 -39 109 -41 1000 -2 921 0 891 -51 958 -46 60 -163 96 -234 73z"/>
<path d="M152 3246 c-48 -17 -99 -62 -124 -109 -23 -42 -23 -43 -24 -580 0
-483 3 -598 21 -674 3 -13 7 -33 10 -45 21 -99 94 -264 157 -357 210 -310 563
-501 927 -503 144 -1 244 97 237 233 -7 140 -85 205 -261 219 -262 21 -455
152 -574 389 -65 127 -69 171 -69 738 0 374 -3 520 -12 551 -15 46 -63 103
-112 128 -40 21 -132 26 -176 10z"/>
<path d="M1483 3250 c-62 -14 -114 -60 -144 -127 -18 -39 -19 -72 -18 -585 0
-314 5 -570 11 -608 14 -91 63 -241 108 -330 147 -291 414 -506 725 -585 166
-42 308 -49 376 -17 87 41 122 93 135 200 5 42 -25 118 -61 156 -46 49 -95 68
-185 73 -342 19 -610 266 -656 603 -2 14 -4 252 -5 530 0 347 -4 518 -12 545
-17 58 -90 128 -149 143 -52 13 -77 14 -125 2z"/>
</g>
</svg>
